<?xml version="1.0" encoding="UTF-8" standalone="no"?>
<!-- Created with Inkscape (http://www.inkscape.org/) -->

<svg
   width="64"
   height="64"
   viewBox="0 0 16.933333 16.933333"
   version="1.1"
   id="svg5"
   sodipodi:docname="PortalCoffe_Logo.svg"
   inkscape:version="1.2.2 (732a01da63, 2022-12-09)"
   xmlns:inkscape="http://www.inkscape.org/namespaces/inkscape"
   xmlns:sodipodi="http://sodipodi.sourceforge.net/DTD/sodipodi-0.dtd"
   xmlns="http://www.w3.org/2000/svg"
   xmlns:svg="http://www.w3.org/2000/svg">
  <sodipodi:namedview
     id="namedview14"
     pagecolor="#ffffff"
     bordercolor="#000000"
     borderopacity="0.25"
     inkscape:showpageshadow="2"
     inkscape:pageopacity="0.0"
     inkscape:pagecheckerboard="0"
     inkscape:deskcolor="#d1d1d1"
     showgrid="false"
     inkscape:zoom="9.1592425"
     inkscape:cx="3.111611"
     inkscape:cy="29.260062"
     inkscape:window-width="1920"
     inkscape:window-height="1009"
     inkscape:window-x="-8"
     inkscape:window-y="-8"
     inkscape:window-maximized="1"
     inkscape:current-layer="g4055" />
  <defs
     id="defs2" />
  <g
     id="layer1"
     style="display:inline"
     transform="matrix(1.5597189,0,0,1.5597189,-4.7484461,-4.738953)"
     inkscape:label="title">
    <g
       id="g4048"
       transform="matrix(0.84280169,0,0,0.84280169,1.3470757,1.9657555)"
       style="fill:#9af6f1;fill-opacity:1"
       inkscape:label="portal">
      <path
         style="display:inline;fill:#9af6f1;fill-opacity:1;stroke:none;stroke-width:0.376186;stroke-linecap:round;stroke-linejoin:round;stroke-dasharray:none;stroke-opacity:0.66"
         id="path3869"
         d="m 13.224865,5.0001189 a 3.3135338,6.2382555 0 0 1 4.634746,-0.9880261 3.3135338,6.2382555 0 0 1 0.567568,8.7161562 3.3135338,6.2382555 0 0 1 -4.624267,1.148956 3.3135338,6.2382555 0 0 1 -0.652948,-8.6949422"
         transform="translate(-7.5304488,-1.119391)"
         inkscape:label="circle" />
      <path
         style="display:inline;fill:#9af6f1;fill-opacity:1;fill-rule:evenodd;stroke:#ffffff;stroke-width:0.080194;stroke-linecap:round;stroke-dasharray:none;stroke-opacity:1"
         id="path4043"
         d="M 8.1565805,7.3327764 C 8.1594124,7.5890445 7.9574775,7.4657896 7.909362,7.3408844 7.778972,7.0024119 7.9567804,6.5922315 8.1471626,6.4809019 8.4877043,6.2817592 8.8226863,6.7478307 8.8982375,7.3084307 9.0091122,8.1311339 8.6353808,8.8948583 8.1754171,9.0365093 7.5623585,9.2253076 7.0077212,8.3976624 6.9204866,7.373338 6.8107106,6.0843304 7.3991954,4.9347005 8.1283261,4.7771638 9.0114001,4.5863654 9.7919405,5.7878198 9.8871129,7.2759772 9.9992694,9.0297189 9.1926361,10.570342 8.1942536,10.740248 7.041582,10.936411 6.0334761,9.3578873 5.9316112,7.4057918 5.8158656,5.1876968 6.8418136,3.2542914 8.1094894,3.0734256 9.5316293,2.8705211 10.767997,4.8274426 10.875989,7.2435236 10.995878,9.9258312 9.7500777,12.252865 8.2130902,12.443985 6.5215361,12.654331 5.0565465,10.31834 4.9427357,7.4382507 4.8183994,4.291795 6.2843436,1.5706633 8.0906529,1.3696925 10.051594,1.1515173 11.745416,3.8669655 11.864864,7.2110751 11.990899,10.739655 10.424227,13.71771 8.3992138,14.032988"
         inkscape:label="spiral"
         sodipodi:nodetypes="cccssssssssccsssc" />
    </g>
    <g
       id="g4055"
       transform="translate(0.27029067,1.389025)"
       inkscape:label="text">
      <rect
         style="fill:#000000;fill-opacity:1;stroke:none;stroke-width:0.04919423;stroke-linecap:round;stroke-linejoin:round;stroke-dasharray:none;stroke-opacity:1"
         id="rect1518"
         width="10.418202"
         height="2.5016356"
         x="3.0042353"
         y="7.369081"
         inkscape:label="blackRect" />
      <text
         xml:space="preserve"
         style="font-style:normal;font-variant:normal;font-weight:normal;font-stretch:normal;font-size:3.45413px;font-family:'Franklin Gothic Heavy';-inkscape-font-specification:'Franklin Gothic Heavy, Normal';font-variant-ligatures:normal;font-variant-caps:normal;font-variant-numeric:normal;font-variant-east-asian:normal;fill:#000000;fill-opacity:1;stroke:#ffffff;stroke-width:0.04919423;stroke-linecap:round;stroke-linejoin:round;stroke-dasharray:none;stroke-opacity:1"
         x="2.6654513"
         y="7.4094706"
         id="text3606"
         transform="scale(1.0743069,0.93083274)"
         inkscape:label="portal"><tspan
           id="tspan3604"
           style="font-style:normal;font-variant:normal;font-weight:normal;font-stretch:normal;font-size:3.45413px;font-family:'Franklin Gothic Heavy';-inkscape-font-specification:'Franklin Gothic Heavy, Normal';font-variant-ligatures:normal;font-variant-caps:normal;font-variant-numeric:normal;font-variant-east-asian:normal;stroke-width:0.04919423;stroke-dasharray:none;stroke:#ffffff;stroke-opacity:1"
           x="2.6654513"
           y="7.4094706">Portal</tspan></text>
      <text
         xml:space="preserve"
         style="font-size:2.04865px;font-family:'Segoe Print';-inkscape-font-specification:'Segoe Print, Normal';fill:#ffffff;fill-opacity:1;stroke:none;stroke-width:0.247419;stroke-linecap:round;stroke-linejoin:round;stroke-dasharray:none;stroke-opacity:0.66"
         x="5.0898457"
         y="9.4441605"
         id="text3610"
         inkscape:label="coffee"><tspan
           id="tspan3608"
           style="fill:#ffffff;fill-opacity:1;stroke-width:0.247419"
           x="5.0898457"
           y="9.4441605">Coffee</tspan></text>
    </g>
  </g>
</svg>
