<?xml version="1.0" encoding="UTF-8" standalone="no"?>
<!-- Created with Inkscape (http://www.inkscape.org/) -->

<svg
   width="64"
   height="64"
   viewBox="0 0 16.933333 16.933333"
   version="1.1"
   id="svg5"
   sodipodi:docname="PortalCoffe_Logo.svg"
   inkscape:version="1.2.2 (732a01da63, 2022-12-09)"
   xmlns:inkscape="http://www.inkscape.org/namespaces/inkscape"
   xmlns:sodipodi="http://sodipodi.sourceforge.net/DTD/sodipodi-0.dtd"
   xmlns="http://www.w3.org/2000/svg"
   xmlns:svg="http://www.w3.org/2000/svg">
  <sodipodi:namedview
     id="namedview14"
     pagecolor="#ffffff"
     bordercolor="#000000"
     borderopacity="0.25"
     inkscape:showpageshadow="2"
     inkscape:pageopacity="0.0"
     inkscape:pagecheckerboard="0"
     inkscape:deskcolor="#d1d1d1"
     showgrid="false"
     inkscape:zoom="6.4765625"
     inkscape:cx="14.282268"
     inkscape:cy="33.351025"
     inkscape:window-width="1920"
     inkscape:window-height="1009"
     inkscape:window-x="-8"
     inkscape:window-y="-8"
     inkscape:window-maximized="1"
     inkscape:current-layer="svg5" />
  <defs
     id="defs2" />
  <g
     id="layer1"
     style="display:inline"
     transform="matrix(1.5597189,0,0,1.5597189,-4.7484461,-4.738953)">
    <g
       id="g4048"
       transform="matrix(0.84280169,0,0,0.84280169,1.384117,1.9657555)"
       style="fill:#9af6f1;fill-opacity:1">
      <path
         style="display:inline;fill:#9af6f1;fill-opacity:1;stroke:none;stroke-width:0.376186;stroke-linecap:round;stroke-linejoin:round;stroke-dasharray:none;stroke-opacity:0.66"
         id="path3869"
         d="m 13.224865,5.0001189 a 3.3135338,6.2382555 0 0 1 4.634746,-0.9880261 3.3135338,6.2382555 0 0 1 0.567568,8.7161562 3.3135338,6.2382555 0 0 1 -4.624267,1.148956 3.3135338,6.2382555 0 0 1 -0.652948,-8.6949422"
         transform="translate(-7.5304488,-1.119391)" />
      <path
         style="display:inline;fill:#9af6f1;fill-opacity:1;fill-rule:evenodd;stroke:#ffffff;stroke-width:0.073351;stroke-dasharray:none;stroke-opacity:1"
         id="path4043"
         d="m 19.87767,5.6308761 c 0.0034,0.178578 -0.239041,0.092689 -0.296808,0.00565 -0.156545,-0.2358614 0.05693,-0.5216917 0.285501,-0.5992707 0.408851,-0.1387707 0.811027,0.1860068 0.901733,0.5766557 0.133115,0.5732929 -0.315583,1.1054871 -0.867811,1.2041952 -0.736032,0.1315624 -1.401924,-0.4451744 -1.506657,-1.1589652 -0.131796,-0.8982328 0.574733,-1.6993416 1.45012,-1.8091196 1.06021,-0.132956 1.997319,0.7042662 2.111582,1.7412746 0.134654,1.2220784 -0.833782,2.2956468 -2.03243,2.4140441 -1.383886,0.1366944 -2.594208,-0.9632847 -2.716506,-2.323584 -0.138963,-1.5456586 1.09278,-2.8929339 2.614739,-3.0189686 1.707407,-0.141392 3.191778,1.2222703 3.321431,2.9058935 0.143938,1.8691408 -1.351757,3.4907127 -3.197049,3.623893 C 17.914652,9.3391515 16.1558,7.7113379 16.01916,5.7043749 c -0.149277,-2.192578 1.610721,-4.088773 3.779358,-4.2288176 2.354286,-0.1520334 4.387873,1.7402012 4.53128,4.0705124 0.151317,2.4588576 -1.782381,4.6029963 -4.213591,4.8226953"
         transform="matrix(0.83294703,0,0,1.4280745,-8.4004726,-0.7376096)" />
    </g>
    <g
       id="g4055"
       transform="translate(0.27029067,1.389025)">
      <rect
         style="fill:#000000;fill-opacity:1;stroke:none;stroke-width:0.230353;stroke-linecap:round;stroke-linejoin:round;stroke-dasharray:none;stroke-opacity:0.66"
         id="rect1518"
         width="10.418202"
         height="2.5016356"
         x="3.0042353"
         y="7.369081" />
      <text
         xml:space="preserve"
         style="font-style:normal;font-variant:normal;font-weight:bold;font-stretch:normal;font-size:3.22437px;font-family:sans-serif;-inkscape-font-specification:'sans-serif, Bold';font-variant-ligatures:normal;font-variant-caps:normal;font-variant-numeric:normal;font-variant-east-asian:normal;fill:#000000;fill-opacity:1;stroke:none;stroke-width:0.389414;stroke-linecap:round;stroke-linejoin:round;stroke-dasharray:none;stroke-opacity:0.66"
         x="2.7221158"
         y="6.916626"
         id="text3606"
         transform="scale(1.0028488,0.9971593)"><tspan
           id="tspan3604"
           style="font-style:normal;font-variant:normal;font-weight:bold;font-stretch:normal;font-size:3.22437px;font-family:sans-serif;-inkscape-font-specification:'sans-serif, Bold';font-variant-ligatures:normal;font-variant-caps:normal;font-variant-numeric:normal;font-variant-east-asian:normal;stroke-width:0.389412"
           x="2.7221158"
           y="6.916626">Portal</tspan></text>
      <text
         xml:space="preserve"
         style="font-size:2.04865px;font-family:'Segoe Print';-inkscape-font-specification:'Segoe Print, Normal';fill:#ffffff;fill-opacity:1;stroke:none;stroke-width:0.247419;stroke-linecap:round;stroke-linejoin:round;stroke-dasharray:none;stroke-opacity:0.66"
         x="5.0898457"
         y="9.4441605"
         id="text3610"><tspan
           id="tspan3608"
           style="fill:#ffffff;fill-opacity:1;stroke-width:0.247419"
           x="5.0898457"
           y="9.4441605">Coffee</tspan></text>
    </g>
  </g>
</svg>
