<?xml version="1.0" encoding="UTF-8" standalone="no"?>
<!-- Created with Inkscape (http://www.inkscape.org/) -->

<svg
   width="64"
   height="64"
   viewBox="0 0 16.933333 16.933333"
   version="1.1"
   id="svg5"
   inkscape:version="1.2.2 (732a01da63, 2022-12-09)"
   sodipodi:docname="PortalCoffe_Portal.svg"
   xmlns:inkscape="http://www.inkscape.org/namespaces/inkscape"
   xmlns:sodipodi="http://sodipodi.sourceforge.net/DTD/sodipodi-0.dtd"
   xmlns="http://www.w3.org/2000/svg"
   xmlns:svg="http://www.w3.org/2000/svg">
  <sodipodi:namedview
     id="namedview7"
     pagecolor="#ffffff"
     bordercolor="#000000"
     borderopacity="0.25"
     inkscape:showpageshadow="2"
     inkscape:pageopacity="0.0"
     inkscape:pagecheckerboard="0"
     inkscape:deskcolor="#d1d1d1"
     inkscape:document-units="mm"
     showgrid="false"
     inkscape:zoom="7.8"
     inkscape:cx="2.5"
     inkscape:cy="28.076923"
     inkscape:window-width="1920"
     inkscape:window-height="1009"
     inkscape:window-x="-8"
     inkscape:window-y="-8"
     inkscape:window-maximized="1"
     inkscape:current-layer="layer1" />
  <defs
     id="defs2" />
  <g
     inkscape:label="Title"
     inkscape:groupmode="layer"
     id="layer1"
     style="display:inline">
    <g
       id="g4048"
       transform="matrix(1.3191845,0,0,1.3191845,-2.6192032,-1.708801)"
       inkscape:label="Portal"
       style="fill:#9af6f1;fill-opacity:1">
      <path
         style="display:inline;fill:#9af6f1;fill-opacity:1;stroke:none;stroke-width:0.376186;stroke-linecap:round;stroke-linejoin:round;stroke-dasharray:none;stroke-opacity:0.66"
         id="path3869"
         sodipodi:type="arc"
         sodipodi:cx="15.807074"
         sodipodi:cy="8.9093943"
         sodipodi:rx="3.3135338"
         sodipodi:ry="6.2382555"
         sodipodi:start="3.8188546"
         sodipodi:end="3.7819272"
         sodipodi:open="true"
         sodipodi:arc-type="arc"
         d="m 13.224865,5.0001189 a 3.3135338,6.2382555 0 0 1 4.634746,-0.9880261 3.3135338,6.2382555 0 0 1 0.567568,8.7161562 3.3135338,6.2382555 0 0 1 -4.624267,1.148956 3.3135338,6.2382555 0 0 1 -0.652948,-8.6949422"
         transform="translate(-7.5304488,-1.119391)"
         inkscape:label="Circle" />
      <path
         sodipodi:type="spiral"
         style="display:inline;fill:#9af6f1;fill-opacity:1;fill-rule:evenodd;stroke:#ffffff;stroke-width:0.073351;stroke-dasharray:none;stroke-opacity:1"
         id="path4043"
         sodipodi:cx="19.87767"
         sodipodi:cy="5.6308761"
         sodipodi:expansion="1"
         sodipodi:revolution="3.9950252"
         sodipodi:radius="4.7438898"
         sodipodi:argument="-17.297806"
         sodipodi:t0="0"
         d="m 19.87767,5.6308761 c 0.0034,0.178578 -0.239041,0.092689 -0.296808,0.00565 -0.156545,-0.2358614 0.05693,-0.5216917 0.285501,-0.5992707 0.408851,-0.1387707 0.811027,0.1860068 0.901733,0.5766557 0.133115,0.5732929 -0.315583,1.1054871 -0.867811,1.2041952 -0.736032,0.1315624 -1.401924,-0.4451744 -1.506657,-1.1589652 -0.131796,-0.8982328 0.574733,-1.6993416 1.45012,-1.8091196 1.06021,-0.132956 1.997319,0.7042662 2.111582,1.7412746 0.134654,1.2220784 -0.833782,2.2956468 -2.03243,2.4140441 -1.383886,0.1366944 -2.594208,-0.9632847 -2.716506,-2.323584 -0.138963,-1.5456586 1.09278,-2.8929339 2.614739,-3.0189686 1.707407,-0.141392 3.191778,1.2222703 3.321431,2.9058935 0.143938,1.8691408 -1.351757,3.4907127 -3.197049,3.623893 C 17.914652,9.3391515 16.1558,7.7113379 16.01916,5.7043749 c -0.149277,-2.192578 1.610721,-4.088773 3.779358,-4.2288176 2.354286,-0.1520334 4.387873,1.7402012 4.53128,4.0705124 0.151317,2.4588576 -1.782381,4.6029963 -4.213591,4.8226953"
         transform="matrix(0.83294703,0,0,1.4280745,-8.4004726,-0.7376096)"
         inkscape:label="Spiral" />
    </g>
  </g>
</svg>
